<svg width="400" height="400" viewBox="0 0 400 400" fill="none" xmlns="http://www.w3.org/2000/svg">
<path d="M330 350H70C58.95 350 50 341.05 50 330V90C50 78.95 58.95 70 70 70H330C341.05 70 350 78.95 350 90V330C350 341.05 341.05 350 330 350Z" stroke="#191919" stroke-width="12" stroke-miterlimit="10" stroke-linecap="round" stroke-linejoin="round"/>
<path d="M50 128.7H350" stroke="#191919" stroke-width="12" stroke-miterlimit="10" stroke-linecap="round" stroke-linejoin="round"/>
<path d="M119.39 50.6104V89.3904" stroke="#198754" stroke-width="12" stroke-miterlimit="10" stroke-linecap="round" stroke-linejoin="round"/>
<path d="M280.61 50.6104V89.3904" stroke="#198754" stroke-width="12" stroke-miterlimit="10" stroke-linecap="round" stroke-linejoin="round"/>
<path d="M120.63 219.67C130.207 219.67 137.97 211.907 137.97 202.33C137.97 192.754 130.207 184.99 120.63 184.99C111.053 184.99 103.29 192.754 103.29 202.33C103.29 211.907 111.053 219.67 120.63 219.67Z" stroke="#191919" stroke-width="12" stroke-miterlimit="10" stroke-linecap="round" stroke-linejoin="round"/>
<path d="M200 219.67C209.577 219.67 217.34 211.907 217.34 202.33C217.34 192.754 209.577 184.99 200 184.99C190.423 184.99 182.66 192.754 182.66 202.33C182.66 211.907 190.423 219.67 200 219.67Z" stroke="#191919" stroke-width="12" stroke-miterlimit="10" stroke-linecap="round" stroke-linejoin="round"/>
<path d="M279.37 219.67C288.947 219.67 296.71 211.907 296.71 202.33C296.71 192.754 288.947 184.99 279.37 184.99C269.793 184.99 262.03 192.754 262.03 202.33C262.03 211.907 269.793 219.67 279.37 219.67Z" stroke="#191919" stroke-width="12" stroke-miterlimit="10" stroke-linecap="round" stroke-linejoin="round"/>
<path d="M120.63 289.67C130.207 289.67 137.97 281.907 137.97 272.33C137.97 262.754 130.207 254.99 120.63 254.99C111.053 254.99 103.29 262.754 103.29 272.33C103.29 281.907 111.053 289.67 120.63 289.67Z" stroke="#191919" stroke-width="12" stroke-miterlimit="10" stroke-linecap="round" stroke-linejoin="round"/>
<path d="M200 289.67C209.577 289.67 217.34 281.907 217.34 272.33C217.34 262.754 209.577 254.99 200 254.99C190.423 254.99 182.66 262.754 182.66 272.33C182.66 281.907 190.423 289.67 200 289.67Z" stroke="#191919" stroke-width="12" stroke-miterlimit="10" stroke-linecap="round" stroke-linejoin="round"/>
<path d="M279.37 289.67C288.947 289.67 296.71 281.907 296.71 272.33C296.71 262.754 288.947 254.99 279.37 254.99C269.793 254.99 262.03 262.754 262.03 272.33C262.03 281.907 269.793 289.67 279.37 289.67Z" stroke="#191919" stroke-width="12" stroke-miterlimit="10" stroke-linecap="round" stroke-linejoin="round"/>
</svg>
