<?xml version="1.0" ?><svg id="Layer_1" style="enable-background:new 0 0 32 32;" version="1.1" viewBox="0 0 32 32" xml:space="preserve" xmlns="http://www.w3.org/2000/svg" xmlns:xlink="http://www.w3.org/1999/xlink"><style type="text/css">
	.st0{fill:none;stroke:#fefefe;stroke-width:1.5;stroke-linecap:round;stroke-linejoin:round;stroke-miterlimit:10;}
</style><g><g><path class="st0" d="M21.2,4.5v25H10.8v-25c0-1.1,0.9-1.9,1.9-1.9h6.6C20.4,2.5,21.2,3.4,21.2,4.5z"/><path class="st0" d="M17.4,10h-2.8c-0.5,0-0.8-0.4-0.8-0.8v-3c0-0.5,0.4-0.8,0.8-0.8h2.8c0.5,0,0.8,0.4,0.8,0.8v3    C18.2,9.6,17.9,10,17.4,10z"/><path class="st0" d="M17.4,18.3h-2.8c-0.5,0-0.8-0.4-0.8-0.8v-3c0-0.5,0.4-0.8,0.8-0.8h2.8c0.5,0,0.8,0.4,0.8,0.8v3    C18.2,17.9,17.9,18.3,17.4,18.3z"/><path class="st0" d="M17.4,26.6h-2.8c-0.5,0-0.8-0.4-0.8-0.8v-3c0-0.5,0.4-0.8,0.8-0.8h2.8c0.5,0,0.8,0.4,0.8,0.8v3    C18.2,26.2,17.9,26.6,17.4,26.6z"/><path class="st0" d="M10.8,5.2v24.2H2.5V13.2c0-0.6,0.2-1.1,0.7-1.5L10.8,5.2z"/><line class="st0" x1="4.7" x2="8.6" y1="14" y2="14"/><line class="st0" x1="25.4" x2="25.4" y1="12.6" y2="8.7"/><line class="st0" x1="25.4" x2="25.4" y1="19.6" y2="15.7"/><line class="st0" x1="25.4" x2="25.4" y1="26.7" y2="22.7"/><line class="st0" x1="4.7" x2="8.6" y1="17.2" y2="17.2"/><line class="st0" x1="4.7" x2="8.6" y1="20.4" y2="20.4"/><line class="st0" x1="4.7" x2="8.6" y1="23.5" y2="23.5"/><line class="st0" x1="4.7" x2="8.6" y1="26.7" y2="26.7"/><path class="st0" d="M29.5,7.8v21.6h-8.3V5.9h6.4C28.6,5.9,29.5,6.7,29.5,7.8z"/></g><line class="st0" x1="1" x2="31" y1="29.5" y2="29.5"/></g></svg>