<svg width="233" height="233" viewBox="0 0 233 233" fill="none" xmlns="http://www.w3.org/2000/svg">
<path d="M36.4062 29.125C24.4286 29.125 14.5625 38.9911 14.5625 50.9687V172.323C14.5625 189.662 28.7758 203.875 46.1146 203.875H186.885C204.224 203.875 218.437 189.662 218.437 172.323V99.5104C218.437 87.5328 208.571 77.6667 196.594 77.6667H189.312V50.9687C189.312 38.9911 179.446 29.125 167.469 29.125H36.4062ZM36.4062 43.6875H167.469C171.578 43.6875 174.75 46.8597 174.75 50.9687V83.7533C174.622 84.535 174.622 85.3324 174.75 86.1141V167.469C174.736 168.434 174.915 169.392 175.274 170.287C175.634 171.182 176.168 171.997 176.846 172.684C177.523 173.371 178.331 173.917 179.221 174.289C180.111 174.662 181.066 174.854 182.031 174.854C182.996 174.854 183.952 174.662 184.842 174.289C185.732 173.917 186.539 173.371 187.217 172.684C187.894 171.997 188.428 171.182 188.788 170.287C189.148 169.392 189.326 168.434 189.312 167.469V92.2292H196.594C200.703 92.2292 203.875 95.4014 203.875 99.5104V172.323C203.875 181.789 196.351 189.312 186.885 189.312H46.1146C36.6487 189.312 29.125 181.789 29.125 172.323V50.9687C29.125 46.8597 32.2972 43.6875 36.4062 43.6875ZM50.9687 72.8125C50.0039 72.7989 49.046 72.9771 48.1506 73.3369C47.2552 73.6967 46.4403 74.2309 45.7532 74.9083C45.066 75.5858 44.5204 76.3931 44.148 77.2833C43.7756 78.1735 43.5838 79.1288 43.5838 80.0937C43.5838 81.0587 43.7756 82.014 44.148 82.9042C44.5204 83.7944 45.066 84.6017 45.7532 85.2792C46.4403 85.9566 47.2552 86.4908 48.1506 86.8506C49.046 87.2104 50.0039 87.3886 50.9687 87.375H152.906C153.871 87.3886 154.829 87.2104 155.724 86.8506C156.62 86.4908 157.435 85.9566 158.122 85.2792C158.809 84.6017 159.355 83.7944 159.727 82.9042C160.099 82.014 160.291 81.0587 160.291 80.0937C160.291 79.1288 160.099 78.1735 159.727 77.2833C159.355 76.3931 158.809 75.5858 158.122 74.9083C157.435 74.2309 156.62 73.6967 155.724 73.3369C154.829 72.9771 153.871 72.7989 152.906 72.8125H50.9687ZM50.9687 111.646C49.0377 111.646 47.1858 112.413 45.8203 113.779C44.4549 115.144 43.6877 116.996 43.6875 118.927V152.906C43.6877 154.837 44.4549 156.689 45.8203 158.055C47.1858 159.42 49.0377 160.187 50.9687 160.187H84.9479C86.879 160.187 88.7309 159.42 90.0963 158.055C91.4618 156.689 92.229 154.837 92.2292 152.906V118.927C92.229 116.996 91.4618 115.144 90.0963 113.779C88.7309 112.413 86.879 111.646 84.9479 111.646H50.9687ZM114.073 111.646C113.108 111.632 112.15 111.81 111.255 112.17C110.359 112.53 109.544 113.064 108.857 113.742C108.17 114.419 107.625 115.226 107.252 116.117C106.88 117.007 106.688 117.962 106.688 118.927C106.688 119.892 106.88 120.847 107.252 121.738C107.625 122.628 108.17 123.435 108.857 124.112C109.544 124.79 110.359 125.324 111.255 125.684C112.15 126.044 113.108 126.222 114.073 126.208H152.906C153.871 126.222 154.829 126.044 155.724 125.684C156.62 125.324 157.435 124.79 158.122 124.112C158.809 123.435 159.355 122.628 159.727 121.738C160.099 120.847 160.291 119.892 160.291 118.927C160.291 117.962 160.099 117.007 159.727 116.117C159.355 115.226 158.809 114.419 158.122 113.742C157.435 113.064 156.62 112.53 155.724 112.17C154.829 111.81 153.871 111.632 152.906 111.646H114.073ZM58.25 126.208H77.6667V145.625H58.25V126.208ZM114.073 145.625C113.108 145.611 112.15 145.79 111.255 146.149C110.359 146.509 109.544 147.043 108.857 147.721C108.17 148.398 107.625 149.206 107.252 150.096C106.88 150.986 106.688 151.941 106.688 152.906C106.688 153.871 106.88 154.827 107.252 155.717C107.625 156.607 108.17 157.414 108.857 158.092C109.544 158.769 110.359 159.303 111.255 159.663C112.15 160.023 113.108 160.201 114.073 160.187H152.906C153.871 160.201 154.829 160.023 155.724 159.663C156.62 159.303 157.435 158.769 158.122 158.092C158.809 157.414 159.355 156.607 159.727 155.717C160.099 154.827 160.291 153.871 160.291 152.906C160.291 151.941 160.099 150.986 159.727 150.096C159.355 149.206 158.809 148.398 158.122 147.721C157.435 147.043 156.62 146.509 155.724 146.149C154.829 145.79 153.871 145.611 152.906 145.625H114.073Z" fill="black"/>
</svg>
