<svg xmlns="http://www.w3.org/2000/svg"  viewBox="0 0 48 48" width="48px" height="48px"><path d="M 11.5 6 C 8.4802259 6 6 8.4802259 6 11.5 L 6 36.5 C 6 39.519774 8.4802259 42 11.5 42 L 36.5 42 C 39.519774 42 42 39.519774 42 36.5 L 42 11.5 C 42 8.4802259 39.519774 6 36.5 6 L 11.5 6 z M 11.5 9 L 36.5 9 C 37.898226 9 39 10.101774 39 11.5 L 39 36.5 C 39 37.898226 37.898226 39 36.5 39 L 11.5 39 C 10.101774 39 9 37.898226 9 36.5 L 9 11.5 C 9 10.101774 10.101774 9 11.5 9 z M 16.414062 12 L 18.189453 18.410156 L 18.189453 21.486328 L 19.728516 21.486328 L 19.728516 18.410156 L 21.527344 12 L 19.976562 12 L 19.332031 14.917969 C 19.150031 15.769969 19.035422 16.376281 18.982422 16.738281 L 18.935547 16.738281 C 18.859547 16.233281 18.743938 15.62125 18.585938 14.90625 L 17.964844 12 L 16.414062 12 z M 23.316406 14.421875 C 22.795406 14.421875 22.376641 14.522469 22.056641 14.730469 C 21.736641 14.937469 21.500609 15.26875 21.349609 15.71875 C 21.200609 16.17175 21.123047 16.768625 21.123047 17.515625 L 21.123047 18.523438 C 21.123047 19.261437 21.190266 19.853828 21.322266 20.298828 C 21.454266 20.743828 21.675281 21.07025 21.988281 21.28125 C 22.302281 21.49325 22.734203 21.599609 23.283203 21.599609 C 23.818203 21.599609 24.244641 21.497062 24.556641 21.289062 C 24.868641 21.081062 25.095375 20.753687 25.234375 20.304688 C 25.373375 19.855688 25.443359 19.263437 25.443359 18.523438 L 25.443359 17.517578 C 25.443359 16.772578 25.371516 16.174563 25.228516 15.726562 C 25.085516 15.279563 24.859781 14.949281 24.550781 14.738281 C 24.240781 14.526281 23.829406 14.421875 23.316406 14.421875 z M 26.253906 14.556641 L 26.253906 19.734375 C 26.253906 20.375375 26.363031 20.847438 26.582031 21.148438 C 26.801031 21.449438 27.140609 21.599609 27.599609 21.599609 C 28.262609 21.599609 28.760797 21.279672 29.091797 20.638672 L 29.126953 20.638672 L 29.261719 21.486328 L 30.482422 21.486328 L 30.482422 14.556641 L 28.923828 14.556641 L 28.923828 20.0625 C 28.863828 20.1905 28.770484 20.298859 28.646484 20.380859 C 28.521484 20.464859 28.392813 20.503906 28.257812 20.503906 C 28.098812 20.503906 27.986969 20.438641 27.917969 20.306641 C 27.848969 20.174641 27.814453 19.953531 27.814453 19.644531 L 27.814453 14.556641 L 26.253906 14.556641 z M 23.283203 15.496094 C 23.502203 15.496094 23.656188 15.610797 23.742188 15.841797 C 23.829188 16.071797 23.873047 16.433641 23.873047 16.931641 L 23.873047 19.091797 C 23.873047 19.603797 23.828187 19.974219 23.742188 20.199219 C 23.655187 20.426219 23.502156 20.538062 23.285156 20.539062 C 23.066156 20.539063 22.914078 20.424219 22.830078 20.199219 C 22.746078 19.974219 22.707031 19.604797 22.707031 19.091797 L 22.707031 16.931641 C 22.707031 16.434641 22.751891 16.072797 22.837891 15.841797 C 22.924891 15.612797 23.072203 15.496094 23.283203 15.496094 z M 15.400391 23 C 14.080391 23 13 24.080391 13 25.400391 L 13 33.599609 C 13 34.919609 14.080391 36 15.400391 36 L 32.599609 36 C 33.919609 36 35 34.919609 35 33.599609 L 35 25.400391 C 35 24.080391 33.919609 23 32.599609 23 L 15.400391 23 z M 24.060547 25.199219 L 25.328125 25.199219 L 25.328125 28.28125 L 25.337891 28.28125 C 25.451891 28.05825 25.613219 27.878187 25.824219 27.742188 C 26.034219 27.606188 26.260906 27.537109 26.503906 27.537109 C 26.814906 27.537109 27.059328 27.619156 27.236328 27.785156 C 27.413328 27.951156 27.543047 28.218891 27.623047 28.587891 C 27.702958 28.957479 27.742101 29.471044 27.742188 30.125 L 27.744141 30.125 L 27.744141 31.050781 L 27.746094 31.050781 C 27.746094 31.922781 27.640687 32.564609 27.429688 32.974609 C 27.218688 33.385609 26.892266 33.589844 26.447266 33.589844 C 26.198266 33.589844 25.973531 33.532922 25.769531 33.419922 C 25.564531 33.305922 25.413547 33.149172 25.310547 32.951172 L 25.28125 32.951172 L 25.148438 33.503906 L 24.060547 33.503906 L 24.060547 25.199219 z M 16.183594 25.496094 L 20.085938 25.496094 L 20.085938 26.554688 L 18.777344 26.554688 L 18.777344 33.503906 L 17.490234 33.503906 L 17.490234 26.554688 L 16.183594 26.554688 L 16.183594 25.496094 z M 30.115234 27.542969 C 30.567234 27.542969 30.91325 27.625016 31.15625 27.791016 C 31.39825 27.956016 31.567969 28.2125 31.667969 28.5625 C 31.765969 28.9135 31.814453 29.396672 31.814453 30.013672 L 31.814453 31.017578 L 31.8125 31.017578 L 31.8125 31.015625 L 29.611328 31.015625 L 29.611328 31.3125 C 29.611328 31.6875 29.623484 31.970203 29.646484 32.158203 C 29.669484 32.345203 29.713203 32.483359 29.783203 32.568359 C 29.853203 32.654359 29.961422 32.695312 30.107422 32.695312 C 30.303422 32.695312 30.440672 32.619797 30.513672 32.466797 C 30.586672 32.313797 30.627813 32.059125 30.632812 31.703125 L 31.769531 31.771484 C 31.774531 31.823484 31.777344 31.893422 31.777344 31.982422 C 31.777344 32.523422 31.630984 32.927359 31.333984 33.193359 C 31.036984 33.460359 30.619125 33.595703 30.078125 33.595703 C 29.429125 33.595703 28.974891 33.390375 28.712891 32.984375 C 28.451891 32.578375 28.322266 31.948703 28.322266 31.095703 L 28.322266 30.072266 C 28.322266 29.193266 28.456563 28.553438 28.726562 28.148438 C 28.996562 27.743437 29.460234 27.542969 30.115234 27.542969 z M 21.947266 27.650391 L 23.263672 27.650391 L 23.263672 33.501953 L 22.232422 33.501953 L 22.119141 32.785156 L 22.091797 32.785156 C 21.810797 33.328156 21.390078 33.597656 20.830078 33.597656 C 20.441078 33.597656 20.155703 33.470797 19.970703 33.216797 C 19.785703 32.961797 19.693359 32.563437 19.693359 32.023438 L 19.693359 27.652344 L 21.013672 27.652344 L 21.013672 31.947266 C 21.013672 32.208266 21.041609 32.394859 21.099609 32.505859 C 21.156609 32.617859 21.249766 32.673828 21.384766 32.673828 C 21.498766 32.673828 21.610844 32.638359 21.714844 32.568359 C 21.820844 32.499359 21.896266 32.408781 21.947266 32.300781 L 21.947266 27.650391 z M 30.089844 28.431641 C 29.949844 28.431641 29.846297 28.475641 29.779297 28.556641 C 29.711297 28.638641 29.666531 28.772938 29.644531 28.960938 C 29.621531 29.148937 29.611328 29.434406 29.611328 29.816406 L 29.611328 30.236328 L 30.572266 30.236328 L 30.572266 29.816406 C 30.572266 29.440406 30.561156 29.154937 30.535156 28.960938 C 30.512156 28.766938 30.465438 28.630781 30.398438 28.550781 C 30.331438 28.470781 30.229844 28.431641 30.089844 28.431641 z M 25.908203 28.474609 C 25.781203 28.474609 25.664641 28.525906 25.556641 28.628906 C 25.449641 28.730906 25.373125 28.861531 25.328125 29.019531 L 25.328125 32.339844 C 25.385125 32.441844 25.460734 32.517359 25.552734 32.568359 C 25.644734 32.618359 25.744516 32.646484 25.853516 32.646484 C 25.993516 32.646484 26.101547 32.593187 26.185547 32.492188 C 26.269547 32.390187 26.328281 32.219562 26.363281 31.976562 C 26.398281 31.735563 26.416016 31.401609 26.416016 30.974609 L 26.414062 30.974609 L 26.414062 30.222656 C 26.414062 29.763656 26.399094 29.410109 26.371094 29.162109 C 26.342094 28.913109 26.29075 28.736812 26.21875 28.632812 C 26.14675 28.528813 26.043203 28.474609 25.908203 28.474609 z"/></svg>