<svg width="400" height="400" viewBox="0 0 400 400" fill="none" xmlns="http://www.w3.org/2000/svg">
<path d="M124 205.52C133.665 205.52 141.5 197.685 141.5 188.02C141.5 178.355 133.665 170.52 124 170.52C114.335 170.52 106.5 178.355 106.5 188.02C106.5 197.685 114.335 205.52 124 205.52Z" stroke="#198754" stroke-width="12" stroke-miterlimit="10" stroke-linecap="round" stroke-linejoin="round"/>
<path d="M200 205.52C209.665 205.52 217.5 197.685 217.5 188.02C217.5 178.355 209.665 170.52 200 170.52C190.335 170.52 182.5 178.355 182.5 188.02C182.5 197.685 190.335 205.52 200 205.52Z" stroke="#198754" stroke-width="12" stroke-miterlimit="10" stroke-linecap="round" stroke-linejoin="round"/>
<path d="M276 205.52C285.665 205.52 293.5 197.685 293.5 188.02C293.5 178.355 285.665 170.52 276 170.52C266.335 170.52 258.5 178.355 258.5 188.02C258.5 197.685 266.335 205.52 276 205.52Z" stroke="#198754" stroke-width="12" stroke-miterlimit="10" stroke-linecap="round" stroke-linejoin="round"/>
<path d="M335 288.02H156.76C154.33 288.02 151.99 288.9 150.17 290.5L104.27 330.73C101.03 333.57 95.97 331.26 95.97 326.96L96.02 298.03C96.03 292.5 91.55 288.01 86.02 288.01H65C56.72 288.01 50 281.29 50 273.01V103.01C50 94.7298 56.72 88.0098 65 88.0098H335C343.28 88.0098 350 94.7298 350 103.01V273.01C350 281.3 343.28 288.02 335 288.02Z" stroke="#191919" stroke-width="12" stroke-miterlimit="10" stroke-linecap="round" stroke-linejoin="round"/>
</svg>
