 <svg  version="1.0" xmlns="http://www.w3.org/2000/svg"  width="300.000000pt" height="144.000000pt" viewBox="0 0 300.000000 144.000000"  preserveAspectRatio="xMidYMid meet">  <g transform="translate(0.000000,144.000000) scale(0.100000,-0.100000)" fill="#2f7f38" stroke="none"> <path d="M588 1181 c-60 -20 -148 -67 -148 -79 0 -5 5 -13 11 -19 9 -9 25 -4 63 17 28 16 83 37 121 47 47 12 70 23 70 33 0 22 -51 22 -117 1z"/> <path d="M740 1182 c0 -17 10 -23 56 -32 31 -7 85 -27 121 -46 36 -18 69 -31 74 -28 45 27 -84 104 -200 120 -47 6 -51 5 -51 -14z"/> <path d="M640 1062 c-12 -10 -23 -30 -23 -45 l-2 -27 -93 0 c-90 0 -95 -1 -123 -30 -42 -42 -38 -84 9 -88 l32 -3 0 -220 0 -219 -25 0 c-35 0 -72 -39 -81 -84 -3 -20 -4 -40 -1 -43 12 -11 95 -15 114 -5 15 8 32 4 79 -19 247 -122 552 9 644 276 26 76 27 125 1 125 -14 0 -21 -10 -26 -37 -3 -21 -11 -55 -17 -75 -9 -31 -14 -36 -28 -28 -21 11 -43 -9 -35 -32 3 -8 -10 -28 -30 -48 l-35 -34 0 221 0 222 33 3 c28 3 32 7 35 35 2 24 -3 39 -22 58 -23 23 -32 25 -121 25 -93 0 -95 1 -95 23 0 13 -10 33 -23 45 -31 29 -133 31 -167 4z m123 -29 c9 -2 17 -13 17 -24 0 -17 -7 -19 -60 -19 -61 0 -75 11 -49 37 12 12 60 15 92 6z m238 -93 c10 -6 19 -14 19 -18 0 -4 -136 -6 -302 -4 -267 3 -301 5 -284 17 16 12 69 15 284 15 162 0 271 -4 283 -10z m-41 -173 l0 -103 -45 -44 c-25 -24 -45 -49 -45 -55 1 -5 21 12 45 38 42 46 45 47 45 24 0 -18 -16 -41 -52 -76 l-53 -50 24 -25 24 -26 -46 0 c-51 0 -59 6 -25 19 21 7 20 8 -10 13 l-31 4 2 -60 c2 -55 0 -61 -18 -61 -19 0 -20 8 -23 164 -2 123 1 166 10 172 24 15 38 -12 38 -71 0 -68 6 -87 30 -100 16 -8 17 1 19 126 2 110 -1 140 -14 160 -17 27 -46 31 -64 10 -9 -11 -7 -15 10 -19 15 -4 20 -12 17 -29 -4 -33 -42 -32 -46 2 -6 41 -30 60 -78 60 -33 0 -47 -5 -62 -25 -12 -15 -30 -25 -46 -25 -19 0 -32 -9 -46 -32 -27 -45 -25 -56 5 -28 14 13 25 29 25 37 0 15 8 16 63 6 l39 -6 -73 -73 c-40 -40 -69 -77 -65 -81 4 -4 26 12 47 36 l39 44 0 -30 c0 -22 -14 -42 -59 -87 l-59 -58 0 176 -1 176 240 0 239 0 0 -103z m-262 -83 c2 -97 0 -123 -12 -133 -30 -25 -36 -2 -31 127 2 70 4 128 5 130 0 2 8 2 18 0 15 -3 17 -18 20 -124z m-147 -332 c-29 -2 -55 -1 -58 2 -3 3 -6 34 -8 70 l-3 66 56 57 57 58 5 -125 5 -125 -54 -3z m398 12 c-7 -9 -31 -14 -61 -14 -48 0 -49 1 -46 28 2 22 8 28 35 30 17 2 37 10 45 19 11 15 11 16 -6 10 -14 -6 -16 -4 -9 5 5 7 13 22 17 33 6 16 5 18 -5 8 -38 -37 -28 30 10 70 l26 28 3 -101 c2 -67 -1 -107 -9 -116z m-261 127 c9 -5 12 -26 10 -67 -3 -51 -6 -59 -23 -59 -17 0 -20 8 -23 54 -4 75 4 93 36 72z m318 -110 c-19 -19 -30 -9 -21 19 5 17 9 19 21 9 13 -11 13 -14 0 -28z m-548 16 c8 -9 -2 -17 -44 -34 -57 -22 -67 -16 -38 25 17 25 65 30 82 9z m-8 -69 c-22 -18 -61 -24 -73 -11 -4 3 15 16 41 28 51 24 70 14 32 -17z m390 -34 c-55 -18 -170 -20 -228 -5 -23 7 -42 14 -42 16 0 3 71 5 158 4 151 -1 155 -1 112 -15z"/> <path d="M884 705 c-38 -50 -25 -52 21 -5 28 28 34 40 23 40 -10 0 -29 -16 -44 -35z"/> <path d="M533 408 c-13 -6 -23 -15 -23 -20 0 -14 27 -9 51 12 27 22 10 26 -28 8z"/> <path d="M357 1028 c-52 -64 -82 -129 -65 -139 22 -14 27 -11 49 34 12 23 37 60 55 83 19 23 34 46 34 53 0 26 -41 8 -73 -31z"/> <path d="M1015 1060 c-4 -6 9 -28 29 -50 58 -64 106 -178 106 -253 0 -29 24 -47 41 -30 16 16 -7 128 -40 199 -30 65 -94 144 -117 144 -7 0 -16 -5 -19 -10z"/> <path d="M1250 910 c0 -11 5 -20 10 -20 6 0 10 -55 10 -144 0 -86 -4 -147 -10 -151 -5 -3 -10 -13 -10 -21 0 -11 15 -14 61 -14 l61 0 -6 28 c-3 15 -8 45 -12 67 -4 22 -9 44 -12 49 -8 14 -21 -24 -21 -66 -1 -21 -6 -38 -11 -38 -7 0 -10 53 -9 145 0 80 4 145 8 145 4 0 7 -19 8 -42 1 -23 9 -48 17 -56 13 -13 15 -9 21 34 3 27 10 57 16 67 16 29 2 37 -62 37 -52 0 -59 -2 -59 -20z"/> <path d="M1390 916 c0 -8 4 -17 9 -21 9 -5 -13 -68 -38 -116 -7 -12 -4 -15 11 -15 15 1 24 -9 33 -34 17 -51 26 -102 16 -96 -5 3 -11 19 -14 35 -4 17 -15 35 -26 40 -19 10 -19 9 -5 -42 8 -28 11 -64 8 -79 -6 -28 -6 -28 51 -28 50 0 57 2 52 18 -18 58 -67 239 -67 248 0 6 11 28 25 48 14 20 25 41 25 46 0 6 -18 10 -40 10 -28 0 -40 -4 -40 -14z"/> <path d="M1500 916 c0 -8 5 -18 10 -21 6 -4 10 -65 10 -150 0 -85 -4 -146 -10 -150 -5 -3 -10 -13 -10 -21 0 -11 18 -14 85 -14 92 0 88 -3 97 65 5 33 -28 30 -40 -4 -18 -51 -30 -35 -34 44 -2 51 1 75 8 75 7 0 14 -9 17 -20 3 -11 12 -20 21 -20 13 0 16 11 16 55 0 44 -3 55 -16 55 -9 0 -18 -9 -21 -20 -3 -11 -10 -20 -17 -20 -7 0 -10 21 -8 65 4 70 14 82 31 35 5 -16 17 -30 25 -30 17 0 19 11 10 59 l-6 31 -84 0 c-67 0 -84 -3 -84 -14z m74 -83 c7 -73 7 -73 -2 -163 -6 -65 -8 -71 -15 -43 -10 37 -5 263 5 263 3 0 9 -26 12 -57z"/> <path d="M1690 916 c0 -8 5 -18 10 -21 6 -4 10 -67 10 -156 0 -93 -4 -149 -10 -149 -5 0 -10 -7 -10 -15 0 -12 17 -15 90 -15 87 0 90 1 90 23 0 12 3 32 6 45 5 18 2 22 -15 22 -16 0 -23 -8 -27 -30 -4 -16 -13 -30 -20 -30 -11 0 -14 29 -14 150 0 93 4 150 10 150 6 0 10 9 10 20 0 18 -7 20 -65 20 -50 0 -65 -3 -65 -14z m75 -187 c-2 -66 -6 -123 -9 -126 -3 -4 -6 53 -6 126 0 73 4 130 9 127 4 -3 7 -60 6 -127z"/> <path d="M1920 917 c0 -7 4 -17 10 -23 10 -10 -25 -266 -41 -296 -15 -30 -10 -38 26 -38 34 0 49 20 26 34 -18 12 1 46 25 46 28 0 43 -25 25 -43 -26 -26 -12 -37 49 -37 43 0 60 4 60 13 0 8 -3 17 -7 21 -5 4 -19 80 -33 169 l-25 162 -57 3 c-44 2 -58 0 -58 -11z m87 -53 c12 -65 23 -148 19 -151 -5 -5 -12 18 -21 70 -4 23 -11 37 -21 37 -14 0 -14 -11 2 -117 4 -29 2 -33 -19 -33 l-23 0 13 98 c7 53 15 103 18 110 7 19 27 10 32 -14z m35 -221 c2 -24 1 -43 -2 -43 -10 0 -25 55 -22 79 5 34 19 13 24 -36z"/> <path d="M2106 921 c-3 -4 1 -17 9 -27 17 -23 22 -289 5 -299 -5 -3 -10 -13 -10 -21 0 -11 15 -14 65 -14 66 0 81 10 54 37 -7 7 -13 28 -15 47 -3 33 -1 36 24 36 84 0 135 96 98 185 -20 48 -60 65 -150 65 -41 0 -77 -4 -80 -9z m142 -96 c4 -82 -3 -115 -23 -115 -12 0 -15 18 -15 96 0 86 2 95 18 92 14 -3 18 -16 20 -73z m-66 -30 c4 -118 -1 -195 -13 -195 -5 0 -9 65 -9 145 0 161 16 199 22 50z m128 4 c0 -21 -4 -41 -10 -44 -12 -7 -12 -6 -16 65 -2 49 -1 53 12 35 8 -10 14 -36 14 -56z"/> <path d="M2370 917 c0 -7 4 -17 9 -22 11 -12 -34 -294 -49 -309 -19 -19 -10 -26 30 -26 40 0 52 14 30 36 -16 16 0 44 25 44 23 0 42 -35 24 -46 -5 -3 -9 -12 -9 -20 0 -11 14 -14 60 -14 61 0 68 6 50 38 -6 9 -20 87 -33 172 l-22 155 -58 3 c-43 2 -57 0 -57 -11z m83 -44 c8 -29 17 -99 11 -85 -3 7 -15 17 -26 23 -19 10 -19 8 -13 -48 4 -32 9 -66 11 -75 4 -14 -1 -18 -20 -18 -22 0 -25 4 -21 28 2 15 10 61 16 102 6 41 13 78 16 83 8 13 22 8 26 -10z m31 -197 c7 -42 10 -76 6 -76 -12 0 -21 39 -24 103 -5 76 1 67 18 -27z"/> <path d="M2556 923 c-3 -3 -1 -14 5 -25 7 -12 9 -80 7 -179 l-3 -159 51 0 50 0 -4 90 c-4 86 -4 90 17 90 19 0 21 -5 21 -69 0 -39 -4 -73 -10 -76 -5 -3 -10 -13 -10 -21 0 -11 14 -14 60 -14 46 0 60 3 60 14 0 8 -4 18 -10 21 -6 4 -10 64 -10 147 0 119 3 143 17 153 34 25 3 34 -116 34 -65 0 -121 -3 -125 -6z m144 -94 c0 -52 -2 -59 -20 -59 -18 0 -20 7 -20 54 0 70 7 91 26 75 9 -7 14 -32 14 -70z m-68 -6 c4 -98 -3 -223 -13 -223 -5 0 -9 65 -9 145 0 147 15 202 22 78z m117 -78 c1 -84 -2 -145 -8 -145 -10 0 -18 124 -13 223 6 121 20 70 21 -78z"/> <path d="M258 825 c-6 -28 15 -46 32 -29 19 20 15 49 -6 52 -16 2 -23 -3 -26 -23z"/> <path d="M1046 764 c-9 -8 -16 -22 -16 -29 0 -13 26 -45 36 -45 19 0 44 24 44 43 0 43 -35 60 -64 31z"/> <path d="M299 758 c-32 -26 -52 -85 -45 -136 9 -67 72 -192 97 -192 21 0 26 29 9 46 -8 8 -6 15 5 24 8 7 15 18 15 25 0 17 -25 26 -38 13 -12 -12 -16 -6 -36 60 l-15 53 29 -6 c25 -5 35 -1 59 23 28 28 49 77 39 88 -14 13 -104 15 -119 2z m74 -15 c4 -3 -12 -15 -35 -25 -47 -21 -59 -17 -33 12 18 19 55 27 68 13z m7 -44 c-13 -24 -31 -32 -62 -27 -21 3 -19 6 17 25 50 28 58 28 45 2z"/> </g> </svg> 
