<svg id="visual" viewBox="0 0 960 540" width="960" height="540" xmlns="http://www.w3.org/2000/svg" xmlns:xlink="http://www.w3.org/1999/xlink" version="1.1"><rect x="0" y="0" width="960" height="540" fill="#198754"></rect><path d="M0 386L22.8 382.3C45.7 378.7 91.3 371.3 137 361.3C182.7 351.3 228.3 338.7 274 339.3C319.7 340 365.3 354 411.2 364C457 374 503 380 548.8 376C594.7 372 640.3 358 686 346C731.7 334 777.3 324 823 322.3C868.7 320.7 914.3 327.3 937.2 330.7L960 334L960 541L937.2 541C914.3 541 868.7 541 823 541C777.3 541 731.7 541 686 541C640.3 541 594.7 541 548.8 541C503 541 457 541 411.2 541C365.3 541 319.7 541 274 541C228.3 541 182.7 541 137 541C91.3 541 45.7 541 22.8 541L0 541Z" fill="#b4ebb4"></path><path d="M0 388L22.8 385.5C45.7 383 91.3 378 137 376.8C182.7 375.7 228.3 378.3 274 379.8C319.7 381.3 365.3 381.7 411.2 380.3C457 379 503 376 548.8 379.7C594.7 383.3 640.3 393.7 686 397.3C731.7 401 777.3 398 823 400.3C868.7 402.7 914.3 410.3 937.2 414.2L960 418L960 541L937.2 541C914.3 541 868.7 541 823 541C777.3 541 731.7 541 686 541C640.3 541 594.7 541 548.8 541C503 541 457 541 411.2 541C365.3 541 319.7 541 274 541C228.3 541 182.7 541 137 541C91.3 541 45.7 541 22.8 541L0 541Z" fill="#91d19a"></path><path d="M0 412L22.8 409.2C45.7 406.3 91.3 400.7 137 400.5C182.7 400.3 228.3 405.7 274 413.5C319.7 421.3 365.3 431.7 411.2 439.8C457 448 503 454 548.8 455C594.7 456 640.3 452 686 441.2C731.7 430.3 777.3 412.7 823 404.5C868.7 396.3 914.3 397.7 937.2 398.3L960 399L960 541L937.2 541C914.3 541 868.7 541 823 541C777.3 541 731.7 541 686 541C640.3 541 594.7 541 548.8 541C503 541 457 541 411.2 541C365.3 541 319.7 541 274 541C228.3 541 182.7 541 137 541C91.3 541 45.7 541 22.8 541L0 541Z" fill="#6eb881"></path><path d="M0 461L22.8 457.5C45.7 454 91.3 447 137 447.3C182.7 447.7 228.3 455.3 274 461C319.7 466.7 365.3 470.3 411.2 469.5C457 468.7 503 463.3 548.8 462.3C594.7 461.3 640.3 464.7 686 461.5C731.7 458.3 777.3 448.7 823 451.8C868.7 455 914.3 471 937.2 479L960 487L960 541L937.2 541C914.3 541 868.7 541 823 541C777.3 541 731.7 541 686 541C640.3 541 594.7 541 548.8 541C503 541 457 541 411.2 541C365.3 541 319.7 541 274 541C228.3 541 182.7 541 137 541C91.3 541 45.7 541 22.8 541L0 541Z" fill="#499f6a"></path><path d="M0 491L22.8 495C45.7 499 91.3 507 137 507.2C182.7 507.3 228.3 499.7 274 494.3C319.7 489 365.3 486 411.2 482.8C457 479.7 503 476.3 548.8 479.5C594.7 482.7 640.3 492.3 686 496.7C731.7 501 777.3 500 823 498.7C868.7 497.3 914.3 495.7 937.2 494.8L960 494L960 541L937.2 541C914.3 541 868.7 541 823 541C777.3 541 731.7 541 686 541C640.3 541 594.7 541 548.8 541C503 541 457 541 411.2 541C365.3 541 319.7 541 274 541C228.3 541 182.7 541 137 541C91.3 541 45.7 541 22.8 541L0 541Z" fill="#198754"></path></svg>